<svg viewBox="0 0 100 100" xmlns="http://www.w3.org/2000/svg">
  <!-- Document base (same style) -->
  <path d="M20,10 L60,10 L80,30 L80,90 L20,90 Z"
        fill="#f8f9fa" stroke="#333" stroke-width="4" stroke-linejoin="round"/>
  <path d="M60,10 L60,30 L80,30"
        fill="#e9ecef" stroke="#333" stroke-width="4" stroke-linejoin="round"/>

  <!-- Molecule glyph (orange) -->
  <path d="M50,24 L63,31.5 L63,46.5 L50,54 L37,46.5 L37,31.5 Z"
        fill="none" stroke="#FE7A00" stroke-width="4" stroke-linejoin="round"/>
  <circle cx="50" cy="39" r="4" fill="#FE7A00"/>

  <!-- "Standardize / Normalize" circular arrows (blue) -->
  <path d="M34,70
           A18,18 0 0 1 61,54"
        fill="none" stroke="#007bff" stroke-width="5" stroke-linecap="round"/>
  <path d="M61,54 L60,63 L69,61"
        fill="none" stroke="#007bff" stroke-width="5" stroke-linecap="round" stroke-linejoin="round"/>

  <path d="M66,70
           A18,18 0 0 1 39,86"
        fill="none" stroke="#007bff" stroke-width="5" stroke-linecap="round"/>
  <path d="M39,86 L40,77 L31,79"
        fill="none" stroke="#007bff" stroke-width="5" stroke-linecap="round" stroke-linejoin="round"/>

  <!-- "OK" check (green) -->
  <path d="M44,74 L48,78 L56,69"
        fill="none" stroke="#28a745" stroke-width="6" stroke-linecap="round" stroke-linejoin="round"/>
</svg>
