<?xml version="1.0" encoding="UTF-8" standalone="no"?>
<svg
   viewBox="0 0 100 100"
   version="1.1"
   id="svg630"
   sodipodi:docname="owmolsketcherwidget.svg"
   inkscape:version="1.2.2 (b0a8486541, 2022-12-01)"
   xmlns:inkscape="http://www.inkscape.org/namespaces/inkscape"
   xmlns:sodipodi="http://sodipodi.sourceforge.net/DTD/sodipodi-0.dtd"
   xmlns="http://www.w3.org/2000/svg"
   xmlns:svg="http://www.w3.org/2000/svg">
  <defs
     id="defs634" />
  <sodipodi:namedview
     id="namedview632"
     pagecolor="#ffffff"
     bordercolor="#000000"
     borderopacity="0.25"
     inkscape:showpageshadow="2"
     inkscape:pageopacity="0.0"
     inkscape:pagecheckerboard="0"
     inkscape:deskcolor="#d1d1d1"
     showgrid="false"
     inkscape:zoom="9.58"
     inkscape:cx="50"
     inkscape:cy="25.991649"
     inkscape:window-width="2192"
     inkscape:window-height="1164"
     inkscape:window-x="0"
     inkscape:window-y="32"
     inkscape:window-maximized="1"
     inkscape:current-layer="svg630" />
  <!-- Document base -->
  <!-- JSME label -->
  <!-- Sketch pad area -->
  <!-- Molecule ring (orange) on the pad -->
  <!-- Pencil (simple, clearer) -->
  <!-- body -->
  <!-- ferrule -->
  <!-- tip -->
  <!-- Database cylinder (green) -->
  <g
     id="g662"
     transform="matrix(1.3159603,0,0,1.1342922,-23.440747,-7.2211185)">
    <path
       d="M 20,10 H 60 L 80,30 V 90 H 20 Z"
       fill="#f8f9fa"
       stroke="#333333"
       stroke-width="4"
       stroke-linejoin="round"
       id="path602" />
    <path
       d="M 60,10 V 30 H 80"
       fill="#e9ecef"
       stroke="#333333"
       stroke-width="4"
       stroke-linejoin="round"
       id="path604" />
    <rect
       x="26"
       y="14"
       width="44"
       height="14"
       rx="4"
       fill="#ffffff"
       stroke="#333333"
       stroke-width="3"
       id="rect606" />
    <text
       x="48"
       y="25"
       font-family="Arial, Helvetica, sans-serif"
       font-size="10px"
       font-weight="800"
       text-anchor="middle"
       fill="#333333"
       id="text608">JSME</text>
    <rect
       x="28"
       y="34"
       width="44"
       height="34"
       rx="6"
       fill="#ffffff"
       stroke="#333333"
       stroke-width="3"
       id="rect610" />
    <path
       d="m 50,38 11,7 V 57 L 50,64 39,57 V 45 Z"
       fill="none"
       stroke="#fe7a00"
       stroke-width="4"
       stroke-linejoin="round"
       id="path612" />
    <circle
       cx="50"
       cy="51"
       r="3.5"
       fill="#fe7a00"
       id="circle614" />
    <path
       d="M 72,36 86,50"
       stroke="#007bff"
       stroke-width="8"
       stroke-linecap="round"
       id="path616" />
    <rect
       x="77.5"
       y="41.5"
       width="8"
       height="8"
       rx="2"
       fill="#c9cdd3"
       stroke="#333333"
       stroke-width="2"
       transform="rotate(45,81.5,45.5)"
       id="rect618" />
    <path
       d="m 88,52 5,5 -3,3 -5,-5 z"
       fill="#ffe08a"
       stroke="#333333"
       stroke-width="2"
       stroke-linejoin="round"
       id="path620" />
    <path
       d="m 92.2,58.2 -1.4,1.4"
       stroke="#333333"
       stroke-width="2"
       stroke-linecap="round"
       id="path622" />
    <ellipse
       cx="50"
       cy="78"
       rx="16"
       ry="6"
       fill="#28a745"
       stroke="#333333"
       stroke-width="3"
       id="ellipse624" />
    <path
       d="m 34,78 v 8 c 0,3 7,6 16,6 9,0 16,-3 16,-6 v -8"
       fill="#28a745"
       stroke="#333333"
       stroke-width="3"
       id="path626" />
    <path
       d="m 34,83 c 0,3 7,6 16,6 9,0 16,-3 16,-6"
       fill="none"
       stroke="#1f7d35"
       stroke-width="2"
       id="path628" />
  </g>
</svg>
