<svg xmlns="http://www.w3.org/2000/svg" xmlns:xlink="http://www.w3.org/1999/xlink" width="1024" zoomAndPan="magnify" viewBox="0 0 768 767.999994" height="1024" preserveAspectRatio="xMidYMid meet" version="1.0"><defs><g/></defs><path stroke-linecap="butt" transform="matrix(9.03, 0, 0, 9.03, -51.195362, -67.453373)" fill-opacity="1" fill="#f8f9fa" fill-rule="nonzero" stroke-linejoin="round" d="M 20.000179 10.000115 L 60.000095 10.000115 L 79.999836 29.999856 L 79.999836 89.999945 L 20.000179 89.999945 Z M 20.000179 10.000115 " stroke="#333333" stroke-width="4" stroke-opacity="1" stroke-miterlimit="4"/><path stroke-linecap="butt" transform="matrix(9.03, 0, 0, 9.03, -51.195362, -67.453373)" fill-opacity="1" fill="#e9ecef" fill-rule="nonzero" stroke-linejoin="round" d="M 60.000095 10.000115 L 60.000095 29.999856 L 79.999836 29.999856 " stroke="#333333" stroke-width="4" stroke-opacity="1" stroke-miterlimit="4"/><path stroke-linecap="butt" transform="matrix(9.03, 0, 0, 9.03, -51.195362, -67.453373)" fill="none" stroke-linejoin="miter" d="M 50.000008 35.000116 L 63.000078 42.499857 L 63.000078 57.500203 L 50.000008 64.999944 L 36.999938 57.500203 L 36.999938 42.499857 Z M 50.000008 35.000116 " stroke="#fe7a00" stroke-width="4" stroke-opacity="1" stroke-miterlimit="4"/><path fill="#fe7a00" d="M 436.425781 384.046875 C 436.425781 385.230469 436.367188 386.410156 436.25 387.585938 C 436.132812 388.765625 435.960938 389.933594 435.730469 391.09375 C 435.5 392.253906 435.210938 393.398438 434.871094 394.53125 C 434.527344 395.664062 434.128906 396.777344 433.675781 397.867188 C 433.222656 398.960938 432.71875 400.03125 432.160156 401.074219 C 431.601562 402.117188 430.996094 403.128906 430.335938 404.113281 C 429.679688 405.097656 428.976562 406.046875 428.226562 406.960938 C 427.476562 407.875 426.683594 408.75 425.84375 409.585938 C 425.007812 410.421875 424.132812 411.21875 423.21875 411.96875 C 422.304688 412.71875 421.355469 413.421875 420.371094 414.078125 C 419.386719 414.738281 418.375 415.34375 417.332031 415.902344 C 416.289062 416.460938 415.21875 416.964844 414.128906 417.417969 C 413.035156 417.871094 411.921875 418.269531 410.789062 418.609375 C 409.65625 418.953125 408.511719 419.242188 407.351562 419.472656 C 406.191406 419.703125 405.023438 419.875 403.84375 419.992188 C 402.667969 420.109375 401.488281 420.167969 400.304688 420.167969 C 399.121094 420.167969 397.941406 420.109375 396.765625 419.992188 C 395.585938 419.875 394.417969 419.703125 393.257812 419.472656 C 392.097656 419.242188 390.953125 418.953125 389.820312 418.609375 C 388.6875 418.269531 387.574219 417.871094 386.480469 417.417969 C 385.390625 416.964844 384.320312 416.460938 383.277344 415.902344 C 382.234375 415.34375 381.222656 414.738281 380.238281 414.078125 C 379.253906 413.421875 378.304688 412.71875 377.390625 411.96875 C 376.476562 411.21875 375.601562 410.421875 374.765625 409.585938 C 373.925781 408.75 373.132812 407.875 372.382812 406.960938 C 371.632812 406.046875 370.929688 405.097656 370.273438 404.113281 C 369.613281 403.128906 369.007812 402.117188 368.449219 401.074219 C 367.890625 400.03125 367.386719 398.960938 366.933594 397.867188 C 366.480469 396.777344 366.082031 395.664062 365.738281 394.53125 C 365.398438 393.398438 365.109375 392.253906 364.878906 391.09375 C 364.648438 389.933594 364.472656 388.765625 364.359375 387.585938 C 364.242188 386.410156 364.183594 385.230469 364.183594 384.046875 C 364.183594 382.863281 364.242188 381.683594 364.359375 380.507812 C 364.472656 379.328125 364.648438 378.160156 364.878906 377 C 365.109375 375.839844 365.398438 374.695312 365.738281 373.5625 C 366.082031 372.429688 366.480469 371.316406 366.933594 370.222656 C 367.386719 369.132812 367.890625 368.0625 368.449219 367.019531 C 369.007812 365.976562 369.613281 364.964844 370.273438 363.980469 C 370.929688 362.996094 371.632812 362.046875 372.382812 361.132812 C 373.132812 360.21875 373.925781 359.34375 374.765625 358.507812 C 375.601562 357.667969 376.476562 356.875 377.390625 356.125 C 378.304688 355.375 379.253906 354.671875 380.238281 354.015625 C 381.222656 353.355469 382.234375 352.75 383.277344 352.191406 C 384.320312 351.632812 385.390625 351.128906 386.480469 350.675781 C 387.574219 350.222656 388.6875 349.824219 389.820312 349.480469 C 390.953125 349.136719 392.097656 348.851562 393.257812 348.621094 C 394.417969 348.390625 395.585938 348.214844 396.765625 348.101562 C 397.941406 347.984375 399.121094 347.925781 400.304688 347.925781 C 401.488281 347.925781 402.667969 347.984375 403.84375 348.101562 C 405.023438 348.214844 406.191406 348.390625 407.351562 348.621094 C 408.511719 348.851562 409.65625 349.136719 410.789062 349.480469 C 411.921875 349.824219 413.035156 350.222656 414.128906 350.675781 C 415.21875 351.128906 416.289062 351.632812 417.332031 352.191406 C 418.375 352.75 419.386719 353.355469 420.371094 354.015625 C 421.355469 354.671875 422.304688 355.375 423.21875 356.125 C 424.132812 356.875 425.007812 357.667969 425.84375 358.507812 C 426.683594 359.34375 427.476562 360.21875 428.226562 361.132812 C 428.976562 362.046875 429.679688 362.996094 430.335938 363.980469 C 430.996094 364.964844 431.601562 365.976562 432.160156 367.019531 C 432.71875 368.0625 433.222656 369.132812 433.675781 370.222656 C 434.128906 371.316406 434.527344 372.429688 434.871094 373.5625 C 435.210938 374.695312 435.5 375.839844 435.730469 377 C 435.960938 378.160156 436.132812 379.328125 436.25 380.507812 C 436.367188 381.683594 436.425781 382.863281 436.425781 384.046875 Z M 436.425781 384.046875 " fill-opacity="1" fill-rule="nonzero"/><g fill="#333333" fill-opacity="1"><g transform="translate(255.82862, 673.004502)"><g><path d="M 90.71875 -28.640625 C 90.71875 -18.910156 87.109375 -11.46875 79.890625 -6.3125 C 72.671875 -1.164062 62.078125 1.40625 48.109375 1.40625 C 35.367188 1.40625 25.375 -0.847656 18.125 -5.359375 C 10.882812 -9.878906 6.226562 -16.722656 4.15625 -25.890625 L 24.265625 -29.203125 C 25.628906 -23.941406 28.285156 -20.125 32.234375 -17.75 C 36.191406 -15.375 41.671875 -14.1875 48.671875 -14.1875 C 63.210938 -14.1875 70.484375 -18.601562 70.484375 -27.4375 C 70.484375 -30.257812 69.644531 -32.585938 67.96875 -34.421875 C 66.300781 -36.253906 63.953125 -37.78125 60.921875 -39 C 57.890625 -40.226562 52.066406 -41.710938 43.453125 -43.453125 C 36.023438 -45.191406 30.851562 -46.59375 27.9375 -47.65625 C 25.019531 -48.71875 22.382812 -49.960938 20.03125 -51.390625 C 17.6875 -52.828125 15.6875 -54.554688 14.03125 -56.578125 C 12.382812 -58.597656 11.101562 -60.972656 10.1875 -63.703125 C 9.269531 -66.429688 8.8125 -69.5625 8.8125 -73.09375 C 8.8125 -82.070312 12.1875 -88.945312 18.9375 -93.71875 C 25.6875 -98.5 35.503906 -100.890625 48.390625 -100.890625 C 60.710938 -100.890625 69.96875 -98.957031 76.15625 -95.09375 C 82.34375 -91.238281 86.328125 -84.867188 88.109375 -75.984375 L 67.9375 -73.234375 C 66.90625 -77.515625 64.800781 -80.734375 61.625 -82.890625 C 58.445312 -85.054688 53.894531 -86.140625 47.96875 -86.140625 C 35.363281 -86.140625 29.0625 -82.1875 29.0625 -74.28125 C 29.0625 -71.695312 29.734375 -69.582031 31.078125 -67.9375 C 32.421875 -66.289062 34.40625 -64.890625 37.03125 -63.734375 C 39.664062 -62.585938 45.003906 -61.144531 53.046875 -59.40625 C 62.597656 -57.382812 69.429688 -55.515625 73.546875 -53.796875 C 77.660156 -52.078125 80.914062 -50.078125 83.3125 -47.796875 C 85.71875 -45.515625 87.550781 -42.785156 88.8125 -39.609375 C 90.082031 -36.429688 90.71875 -32.773438 90.71875 -28.640625 Z M 90.71875 -28.640625 "/></g></g></g><g fill="#333333" fill-opacity="1"><g transform="translate(352.189083, 673.004502)"><g><path d="M 98.28125 -50.4375 C 98.28125 -40.1875 96.265625 -31.238281 92.234375 -23.59375 C 88.210938 -15.957031 82.519531 -10.113281 75.15625 -6.0625 C 67.800781 -2.019531 59.375 0 49.875 0 L 9.671875 0 L 9.671875 -99.40625 L 45.640625 -99.40625 C 62.390625 -99.40625 75.347656 -95.179688 84.515625 -86.734375 C 93.691406 -78.296875 98.28125 -66.195312 98.28125 -50.4375 Z M 77.328125 -50.4375 C 77.328125 -61.113281 74.550781 -69.257812 69 -74.875 C 63.445312 -80.5 55.519531 -83.3125 45.21875 -83.3125 L 30.484375 -83.3125 L 30.484375 -16.078125 L 48.109375 -16.078125 C 57.046875 -16.078125 64.148438 -19.15625 69.421875 -25.3125 C 74.691406 -31.476562 77.328125 -39.851562 77.328125 -50.4375 Z M 77.328125 -50.4375 "/></g></g></g><g fill="#333333" fill-opacity="1"><g transform="translate(456.520806, 673.004502)"><g><path d="M 30.484375 -83.3125 L 30.484375 -52.5625 L 81.34375 -52.5625 L 81.34375 -36.46875 L 30.484375 -36.46875 L 30.484375 0 L 9.671875 0 L 9.671875 -99.40625 L 82.96875 -99.40625 L 82.96875 -83.3125 Z M 30.484375 -83.3125 "/></g></g></g></svg>